<svg id="Capa_1" data-name="Capa 1" xmlns="http://www.w3.org/2000/svg" viewBox="0 0 30 30"><defs><style>.cls-1{fill:#fff;}</style></defs><path class="cls-1" d="M10.34,17.26v-.58c0-1.74,0-3.48.06-5.22a14.19,14.19,0,0,1,.88-4.26A7.27,7.27,0,0,1,12.6,4.89,3.09,3.09,0,0,1,15,3.78a2.9,2.9,0,0,1,2,.82,5.26,5.26,0,0,1,1.32,2,18,18,0,0,1,1.14,4.87c.19,1.72.13,3.44.15,5.17v.44s0,.09,0,.15.18,0,.24,0a3.05,3.05,0,0,0,1.27-1.46,2.07,2.07,0,0,0,0-.86c0-.26,0-.48.2-.54a.38.38,0,0,1,.5.3c.1.29.17.59.25.89a13,13,0,0,1,.41,4.73,8.32,8.32,0,0,1-1.82,4.51,7.61,7.61,0,0,1-2.81,2.11,16.23,16.23,0,0,1-1.79.58,4.06,4.06,0,0,1-1.83.12,7.69,7.69,0,0,1-1.48-.39,9.05,9.05,0,0,1-2-1,7.37,7.37,0,0,1-2.45-2.81,8.43,8.43,0,0,1-.93-3.94,14.39,14.39,0,0,1,.23-3.08c.12-.53.24-1.06.39-1.58.1-.35.3-.49.51-.43s.3.25.23.59a2,2,0,0,0,.81,1.93,2.17,2.17,0,0,0,.42.31A1.49,1.49,0,0,0,10.34,17.26Zm4.95,9.58c.22,0,.44-.05.65-.11.46-.14.92-.29,1.37-.45a6.22,6.22,0,0,0,2.35-1.48,7.45,7.45,0,0,0,2.12-4.34,11.9,11.9,0,0,0,0-3,3.92,3.92,0,0,0-.18-.69c-.1.08-.17.11-.21.17a5.41,5.41,0,0,1-1.9,1.45,14.19,14.19,0,0,0-2.14,1.24,5.36,5.36,0,0,0-1.24,1.23A6.4,6.4,0,0,0,15,24.6,7.34,7.34,0,0,0,15.29,26.84Zm-.86-.1c0-.18,0-.33,0-.47a8.34,8.34,0,0,1,.19-4,.36.36,0,0,0,0-.25,5.2,5.2,0,0,0-1.21-1.86,10.18,10.18,0,0,0-2.72-1.79,5.68,5.68,0,0,1-2-1.51,2.26,2.26,0,0,0-.21-.16,1.88,1.88,0,0,0-.09.3,10.15,10.15,0,0,0,.33,5.1A7.17,7.17,0,0,0,10,24.49a7.29,7.29,0,0,0,3.39,2.07A2.13,2.13,0,0,0,14.43,26.74Zm2.44-10.23h1.48c.48,0,.51,0,.51-.49V13.49a23.3,23.3,0,0,0-.36-3.82A3.58,3.58,0,0,0,18.32,9c0-.08-.12-.2-.19-.21a5.8,5.8,0,0,0-1.25,0,17.29,17.29,0,0,0,0,3.47,5,5,0,0,1,.55,0,1.26,1.26,0,0,1,.38.1c.18.06.21.22.19.39a.29.29,0,0,1-.31.26h-.4c-.48,0-.51,0-.51.49V16C16.82,16.17,16.85,16.32,16.87,16.51ZM16,8a.69.69,0,0,0,.09-.25c0-.89,0-1.77,0-2.66a.37.37,0,0,0-.29-.39,3.18,3.18,0,0,0-.51-.13,2.31,2.31,0,0,0-2,.8,6.13,6.13,0,0,0-1.28,2.28,1.73,1.73,0,0,0,0,.36h1.27c0-.36,0-.7,0-1a1.8,1.8,0,0,1,0-.4.33.33,0,0,1,.4-.26.3.3,0,0,1,.31.35v.66c0,.22,0,.43,0,.67Zm-2.88,8.52a1.9,1.9,0,0,0,.08-.29c0-.95,0-1.89,0-2.83,0-.27-.07-.32-.36-.33H11.56c-.44,0-.49,0-.49.48,0,1.29,0,2.57,0,3.85a.54.54,0,0,0,.31.53c.52.3,1,.62,1.53.93a1.84,1.84,0,0,0,.23.06V17.27l-.51,0c-.22,0-.44,0-.66,0a.44.44,0,0,1-.36-.39c0-.16.17-.32.38-.33Zm3.36,2a.49.49,0,0,1-.38-.58c0-.13,0-.26,0-.4s-.11-.31-.33-.31c-.49,0-1,0-1.46,0a1.36,1.36,0,0,0-.29.06.6.6,0,0,0-.05.14c0,.68,0,1.35,0,2a.74.74,0,0,0,.18.38l.7.95c.16.23.25.24.39,0a7,7,0,0,1,2.68-2.45c.27-.15.54-.3.8-.46a.37.37,0,0,0,.18-.45c-.05-.19-.2-.19-.35-.19h-.84l-.84,0c0,.24,0,.43,0,.62A.6.6,0,0,1,16.44,18.53ZM14,8.84v3.45h1.87a.21.21,0,0,0,.23-.22c0-.12,0-.24,0-.35V9.33c0-.51,0-.53-.52-.53H14.4A3.58,3.58,0,0,0,14,8.84Zm2,7.67a1.67,1.67,0,0,0,.1-.4c0-.88,0-1.76,0-2.65,0-.32-.08-.39-.39-.4H14.33c-.38,0-.42,0-.42.45v2.57a3,3,0,0,0,.05.39,1.81,1.81,0,0,0,.29,0ZM11.12,12.3h2a19.17,19.17,0,0,0,0-3.48,6.37,6.37,0,0,0-1.51,0A14.63,14.63,0,0,0,11.12,12.3ZM18,8a1,1,0,0,0,0-.31,7.81,7.81,0,0,0-.9-1.89,2.23,2.23,0,0,0-.26-.2c0,.86,0,1.63.06,2.4Z"/></svg>