<svg id="Capa_1" data-name="Capa 1" xmlns="http://www.w3.org/2000/svg" viewBox="0 0 30 30"><defs><style>.cls-1{fill:#fff;}</style></defs><path class="cls-1" d="M17.85,22.68l2.42,2.14,1.7,1.5a.34.34,0,0,1,.06.06c.47.47.39.8-.24,1a4.79,4.79,0,0,1-2.68,0A6.07,6.07,0,0,1,16.2,25.8c-.19-.19-.31-.08-.44.06a5.19,5.19,0,0,1-1.46,1c-.41.18-.84.33-1.26.5a5.37,5.37,0,0,1-1.87.19,2.22,2.22,0,0,1-1.06-.22c-.52-.26-.57-.49-.22-.87a11.67,11.67,0,0,1,.9-.82l3.07-2.74c.32-.29.31-.33,0-.61a18.28,18.28,0,0,1-2.59-2.83,12.68,12.68,0,0,1-1.49-2.67,9.23,9.23,0,0,1,.11-7.7,13.87,13.87,0,0,1,2.46-3.65,24.52,24.52,0,0,1,3.21-2.9.59.59,0,0,1,.87,0A21.6,21.6,0,0,1,20.26,6.2a13.28,13.28,0,0,1,2.13,3.62,9.74,9.74,0,0,1,.48,4.69A9.58,9.58,0,0,1,21.69,18a16,16,0,0,1-3,3.85c-.22.22-.46.41-.68.63A1.21,1.21,0,0,0,17.85,22.68Zm3,3.93s0-.08-.05-.1L19.1,25l-2.17-2c-.41-.38-.38-.54.05-.91s.91-.79,1.33-1.21a16.23,16.23,0,0,0,2.42-3.11,9.4,9.4,0,0,0,1.39-4.57,7.5,7.5,0,0,0-.34-2.4.32.32,0,0,0-.34-.27H10.5a.33.33,0,0,0-.33.3,17.84,17.84,0,0,0-.29,1.78,8.32,8.32,0,0,0,.75,4,14.83,14.83,0,0,0,3.18,4.43c.41.41.88.77,1.31,1.16s.33.43,0,.73c-.51.5-1,1-1.57,1.45-.76.68-1.53,1.35-2.29,2a1.15,1.15,0,0,0-.17.26c.22,0,.37,0,.52,0a5.63,5.63,0,0,0,2.77-.94,5.54,5.54,0,0,0,1.17-1.1c.31-.38.58-.36.89,0a5.46,5.46,0,0,0,4,2C20.6,26.75,20.77,26.8,20.85,26.61ZM10.63,9.79c.72.1,10.4.07,10.71,0-.06-1.21-3.25-5-5.37-6.37-.31.25-.64.48-1,.75a23.9,23.9,0,0,0-2.56,2.57,14.19,14.19,0,0,0-1.73,2.67A1.46,1.46,0,0,0,10.63,9.79Z"/><path class="cls-1" d="M16,16.17a1.45,1.45,0,0,1-1.49-1,.86.86,0,0,0-.42-.46,1.6,1.6,0,0,1-.9-1.27.77.77,0,0,1,.12-.49.34.34,0,0,1,.61,0,1.46,1.46,0,0,1,.16.41.81.81,0,0,0,.76.62.78.78,0,0,0,.72-.61.86.86,0,0,1,0-.17c.07-.27.29-.47.48-.45a.6.6,0,0,1,.42.5.73.73,0,0,0,.42.63.71.71,0,0,0,1-.42,4,4,0,0,1,.2-.48.32.32,0,0,1,.4-.21.44.44,0,0,1,.35.4,1.46,1.46,0,0,1-.73,1.4,1.56,1.56,0,0,0-.65.67A1.44,1.44,0,0,1,16,16.17Zm.68-1.24c-.53-.58-.9-.57-1.25,0C15.77,15.47,16.23,15.47,16.63,14.93Z"/><path class="cls-1" d="M14.2,8.36a.74.74,0,0,1-.7-.7A.79.79,0,0,1,14.23,7a.74.74,0,0,1,.69.71A.72.72,0,0,1,14.2,8.36Z"/></svg>