<svg id="Capa_1" data-name="Capa 1" xmlns="http://www.w3.org/2000/svg" viewBox="0 0 30 30"><defs><style>.cls-1{fill:#fff;}</style></defs><path class="cls-1" d="M15.84,27.13a6.51,6.51,0,0,1-4.06-1.5A5,5,0,0,1,10,21c.1-.8.26-1.6.43-2.39a13.68,13.68,0,0,0,.44-4.12,19.57,19.57,0,0,0-.41-2.39c-.19-.88-.46-1.74-.65-2.61a5.69,5.69,0,0,1,.25-3.64,4.77,4.77,0,0,1,1.81-2.09A6.34,6.34,0,0,1,13.65,3a5,5,0,0,1,2.1-.11,4.52,4.52,0,0,1,3.11,1.78A6.11,6.11,0,0,1,20,9a14.74,14.74,0,0,1-.7,3,10.55,10.55,0,0,0-.62,3.1,7.42,7.42,0,0,0,.44,2.2c.37,1.13.78,2.24,1,3.4a7.14,7.14,0,0,1,.16,2.76,3.91,3.91,0,0,1-2.55,3.29,3.33,3.33,0,0,1-.4.16Zm1-4a2.17,2.17,0,0,0,.45.1c.62,0,1.24,0,1.86,0,.4,0,.45-.07.46-.48a7.26,7.26,0,0,0-.29-2.45c-.36-1.2-.77-2.4-1.13-3.61a5.66,5.66,0,0,1-.3-1.63,9.72,9.72,0,0,1,.4-2.39c.21-.86.51-1.71.76-2.57a5.8,5.8,0,0,0-.39-4.38,3.78,3.78,0,0,0-2.81-2,4.87,4.87,0,0,0-3.34.55,4,4,0,0,0-2.12,3.51,11.87,11.87,0,0,0,.2,1.88,5.06,5.06,0,0,0,.18.77c.22.82.47,1.64.65,2.46a11,11,0,0,1,.19,2.91A10.6,10.6,0,0,1,11.29,18c-.13.46-.18.95-.29,1.42a9.17,9.17,0,0,0-.29,2.71,3.84,3.84,0,0,0,.49,1.58,4.63,4.63,0,0,0,1.94,1.88,5.12,5.12,0,0,0,4.18.48,3.26,3.26,0,0,0,1.93-1.69c.15-.3.09-.41-.23-.42-.61,0-1.21,0-1.82,0-.26,0-.36.1-.37.38s0,.53,0,.79a.45.45,0,0,1-.36.53.52.52,0,0,1-.41-.63c0-.25,0-.5,0-.75S16,24,15.74,24s-.42,0-.62,0a2.17,2.17,0,0,1-.36,0c-.18,0-.34-.1-.38-.31s.12-.32.37-.36.42,0,.62,0l.69-.05V22c0-.33,0-.38-.39-.39h-2c-.36,0-.4.06-.4.43,0,.69,0,1.38,0,2.08,0,.37-.11.54-.36.54s-.37-.14-.37-.53v-2c0-.43,0-.46-.49-.48l-.63-.05V21l.47,0c.65,0,.65,0,.65-.68V15.6c0-.1,0-.2,0-.31a.34.34,0,0,1,.32-.35.38.38,0,0,1,.39.34c0,.13,0,.26,0,.39a4.77,4.77,0,0,0,0,.5h1.76c.29,0,.43.14.43.38s-.15.38-.43.39c-.44,0-.89,0-1.33,0-.14,0-.28,0-.41,0a.54.54,0,0,0-.05.16c0,1.16,0,2.31,0,3.46,0,.25.08.31.37.31h2c.39,0,.42,0,.42-.44V18.53a1.61,1.61,0,0,1,0-.31.41.41,0,0,1,.4-.38.42.42,0,0,1,.35.39c0,.1,0,.21,0,.31V20.4c0,.48.05.52.54.53H18a3.71,3.71,0,0,1,.44.05v.58c-.2,0-.37.06-.55.07h-.7c-.2,0-.35.07-.35.31Z"/><path class="cls-1" d="M12,9.3c-.43-.07-.48-.43-.52-.7a3,3,0,0,1,1.11-3.08A.74.74,0,0,1,13,5.34a.35.35,0,0,1,.28.23.66.66,0,0,1-.11.43,2.56,2.56,0,0,1-.44.43,2.24,2.24,0,0,0-.49,2.21C12.35,9.06,12.36,9.05,12,9.3Z"/></svg>