<svg id="Capa_1" data-name="Capa 1" xmlns="http://www.w3.org/2000/svg" viewBox="0 0 30 30"><defs><style>.cls-1{fill:#fff;}</style></defs><path class="cls-1" d="M16.56,2H17a1.81,1.81,0,0,1,.14,1c0,.73,0,.72.71.8a7.17,7.17,0,0,1,6,5.06A6.14,6.14,0,0,1,24,10.08a1,1,0,0,1-.49,1,.64.64,0,0,0-.31.63c0,.68,0,1.35,0,2,0,.52,0,1-.05,1.55A3.73,3.73,0,0,1,21.93,18a4.87,4.87,0,0,1-2.07,1.21c-.73.21-1.45.45-2.17.68a3.63,3.63,0,0,1-.54.15.65.65,0,0,1-.31,0l-2.21-.67A5.69,5.69,0,0,1,12,17.81a4.23,4.23,0,0,1-1-1.94,8.71,8.71,0,0,1-.13-2c0-.75,0-1.5,0-2.26,0-.19,0-.34-.23-.42A1.05,1.05,0,0,1,9.79,10a7.59,7.59,0,0,1,.34-1.5,7,7,0,0,1,3.25-3.81,6.27,6.27,0,0,1,2.52-.84c.48,0,.54-.13.54-.61A2.54,2.54,0,0,1,16.56,2ZM22.5,13.38c0-.58,0-1.15,0-1.73,0-.29-.13-.38-.42-.36a4.58,4.58,0,0,1-.53,0h-9a3.2,3.2,0,0,1-.44,0c-.48-.05-.54,0-.54.48v3.32a2.25,2.25,0,0,0,0,.44,3.81,3.81,0,0,0,2.52,2.79c.87.34,1.79.56,2.69.83a.74.74,0,0,0,.39,0c.87-.26,1.75-.51,2.61-.81a3.75,3.75,0,0,0,2.7-3.72C22.49,14.23,22.5,13.8,22.5,13.38Zm-5.64-2.81H22.8c.39-.05.55-.24.48-.63a6.61,6.61,0,0,0-3.14-4.57,5.72,5.72,0,0,0-2-.78,13.41,13.41,0,0,0-1.68,0,5.22,5.22,0,0,0-2.67.78,6.19,6.19,0,0,0-2.39,2.32,5.26,5.26,0,0,0-.82,2.31c0,.47.09.6.57.63h5.75Z"/><path class="cls-1" d="M11.83,26.21a7.32,7.32,0,0,1-3.48-1.07,9,9,0,0,1-3.78-4.08,8.4,8.4,0,0,1-.71-4.64A8,8,0,0,1,5,13.26,2.87,2.87,0,0,1,6.38,12a1.83,1.83,0,0,1,2.56,1,4.36,4.36,0,0,1,.26,2.26c-.08.61-.11,1.23-.13,1.85a2.07,2.07,0,0,0,.9,1.77,6.62,6.62,0,0,0,1.52.78,17.78,17.78,0,0,1,2.26.91,3.38,3.38,0,0,1,1.68,2A2.46,2.46,0,0,1,14.77,25,3.11,3.11,0,0,1,13,26Zm-.38-.8a3.52,3.52,0,0,0,2.76-.92A1.64,1.64,0,0,0,14.77,23,2.42,2.42,0,0,0,14,21.68a6.76,6.76,0,0,0-2.1-1.08,11,11,0,0,1-2.14-.94,2.71,2.71,0,0,1-1.41-2.34c0-.71.07-1.41.11-2.12a7.16,7.16,0,0,0,0-.92,2.42,2.42,0,0,0-.32-1.14A1.1,1.1,0,0,0,7,12.64a2,2,0,0,0-1.3,1,6.8,6.8,0,0,0-1.16,4A7.59,7.59,0,0,0,6.08,22.1a8.59,8.59,0,0,0,3.4,2.75A5.14,5.14,0,0,0,11.45,25.41Z"/><path class="cls-1" d="M5.22,17.46A6.74,6.74,0,0,1,6,14.56a.76.76,0,0,1,.18-.25c.12-.09.27-.23.43-.08s.29.26.17.49a7.49,7.49,0,0,0-.52,1.16,3.81,3.81,0,0,0-.16,2.29,1.55,1.55,0,0,1,.07.6.5.5,0,0,1-.25.32c-.07,0-.22-.08-.32-.16a.49.49,0,0,1-.15-.26C5.35,18.23,5.28,17.78,5.22,17.46Z"/></svg>