<svg id="Capa_1" data-name="Capa 1" xmlns="http://www.w3.org/2000/svg" viewBox="0 0 30 30"><defs><style>.cls-1{fill:#fff;}</style></defs><path class="cls-1" d="M20.72,24.66a2.8,2.8,0,0,1-.07.7A4.9,4.9,0,0,1,18.37,28a6.44,6.44,0,0,1-1.4.49,7.56,7.56,0,0,1-2,.12,9.35,9.35,0,0,1-2.29-.42,9.58,9.58,0,0,1-2-.84A10.26,10.26,0,0,1,7.12,24a9.89,9.89,0,0,1-1.37-3.31,9.25,9.25,0,0,1-.18-3.19,10.49,10.49,0,0,1,1.15-3.75,9.73,9.73,0,0,1,3.22-3.58,9.31,9.31,0,0,1,3.63-1.52,13.67,13.67,0,0,1,2.21-.21c2.31,0,4.62,0,6.93,0A1.76,1.76,0,0,0,23.83,8a1.36,1.36,0,0,0-.17-2.34,2.6,2.6,0,0,0-1.42-.42h-10c-.35,0-.56-.13-.58-.34s.29-.4.6-.42h10a3.36,3.36,0,0,1,1.9.54,7.67,7.67,0,0,1,.61.49c0-.2,0-.32,0-.39A2.77,2.77,0,0,0,23.2,3.8a3.65,3.65,0,0,0-.88-.1H10.67c-.15,0-.29,0-.43,0a.51.51,0,0,1-.39-.41.49.49,0,0,1,.39-.4,1.82,1.82,0,0,1,.33,0H22.46a3.09,3.09,0,0,1,2.88,1.68,3.09,3.09,0,0,1,0,3.1,3,3,0,0,1-1.57,1.4.84.84,0,0,0-.53.64,8.08,8.08,0,0,1-1.56,3,6.65,6.65,0,0,1-2.47,1.86,7.44,7.44,0,0,1-3,.6,4.73,4.73,0,0,0-3.49,1.45,2.45,2.45,0,0,0-.21.3,2.28,2.28,0,0,0,.34.07h1.42a.53.53,0,0,1,.34.1c.09.1.19.29.15.4a.43.43,0,0,1-.41.33c-.27,0-.54,0-.8,0H12.17a.43.43,0,0,0-.43.21,2.29,2.29,0,0,0-.25,1.48l.39,0h1.66c.33,0,.47.13.47.39s-.15.4-.46.41H12c-.17,0-.33,0-.53,0a2.24,2.24,0,0,0,.4,1.4.58.58,0,0,0,.37.12h2.13a.48.48,0,0,1,.39.4.45.45,0,0,1-.4.39c-.41,0-.82,0-1.23,0h-.57a1.66,1.66,0,0,0,.18.36,4.49,4.49,0,0,0,2.87,1.36c.63,0,1.26,0,1.89,0l2.59.07C20.27,24.58,20.45,24.62,20.72,24.66ZM14.59,9.34a4.86,4.86,0,0,0-1.3.18,8.67,8.67,0,0,0-2.71,1.2,9.24,9.24,0,0,0-4.19,6.54,8.29,8.29,0,0,0,.19,3.5,9.53,9.53,0,0,0,4.55,5.9,10,10,0,0,0,3.61,1.13,5.59,5.59,0,0,0,2.83-.33,1.21,1.21,0,0,0,.2-.14v-.1l-.44,0c-.8,0-1.61,0-2.41,0-.54,0-.64-.17-.47-.74.16,0,.33,0,.5,0,1.18,0,2.36,0,3.54,0a1,1,0,0,0,1-.61c.08-.15.23-.28.06-.48l-.31,0-3.3,0a5.3,5.3,0,0,1-4.34-2.22,5.48,5.48,0,0,1,3-8.5C14.6,12.85,14.6,11.12,14.59,9.34Zm7.87-.13-.37,0H15.92c-.43,0-.5.05-.5.43V14c0,.37.08.44.44.44a7.46,7.46,0,0,0,2.39-.37,5.94,5.94,0,0,0,3.2-2.43,9.32,9.32,0,0,0,.95-2A1.73,1.73,0,0,0,22.46,9.21Z"/><path class="cls-1" d="M19.87,11.57a.73.73,0,1,1,.06-1.45.78.78,0,0,1,.72.71A.74.74,0,0,1,19.87,11.57Z"/></svg>