<svg id="Capa_1" data-name="Capa 1" xmlns="http://www.w3.org/2000/svg" viewBox="0 0 30 30"><defs><style>.cls-1{fill:#fff;}</style></defs><path class="cls-1" d="M15.43,8.69c.89-.27,1.73-.57,2.59-.77A5.18,5.18,0,0,1,20.7,8a4.14,4.14,0,0,1,3.05,3.74,15.41,15.41,0,0,1-.83,7,13.06,13.06,0,0,1-2.28,4.45,5.83,5.83,0,0,1-1.15,1,1.69,1.69,0,0,1-1.59.18L16,23.67a2.6,2.6,0,0,0-2.1.1c-.37.18-.75.33-1.13.49a2.34,2.34,0,0,1-2.26-.2,6,6,0,0,1-1.76-1.81,16,16,0,0,1-2.36-6.08,12.11,12.11,0,0,1-.07-4.57,6.4,6.4,0,0,1,1.44-3,3.12,3.12,0,0,1,3.56-1,5.8,5.8,0,0,1,2,1.18.53.53,0,0,1,.14.79c-.21.25-.48.22-.82,0A8.62,8.62,0,0,0,11.1,8.7a2.26,2.26,0,0,0-2.65.72,4.89,4.89,0,0,0-1.19,2.75,14.42,14.42,0,0,0,2.65,9.89,5.4,5.4,0,0,0,1.29,1.18,1.08,1.08,0,0,0,1.14.08l1.29-.55a3.32,3.32,0,0,1,2.53-.13c.66.22,1.31.43,2,.66a.93.93,0,0,0,1-.15,6.68,6.68,0,0,0,1-1,15.43,15.43,0,0,0,2.29-5.47,13.24,13.24,0,0,0,.39-4,6.63,6.63,0,0,0-.28-1.6,3.12,3.12,0,0,0-3.08-2.21,7.93,7.93,0,0,0-4,1.16c-.08,0-.16.1-.24.13a.5.5,0,0,1-.75-.46q0-1.94,0-3.87a.48.48,0,0,1,.5-.51.47.47,0,0,1,.51.52c0,.85,0,1.7,0,2.54Z"/><path class="cls-1" d="M17,7.73l-.5-.05c-.41,0-.56-.24-.44-.63a4.37,4.37,0,0,1,3.46-3.24,7,7,0,0,1,1.59-.07c.39,0,.53.26.42.64A4.56,4.56,0,0,1,17,7.73Zm0-.88a3.51,3.51,0,0,0,3.5-2.29A3.52,3.52,0,0,0,17,6.85Z"/><path class="cls-1" d="M21.8,13.34A16.71,16.71,0,0,1,21,17.5a.41.41,0,0,1-.52.34c-.25-.06-.34-.27-.27-.59.21-.89.44-1.77.61-2.66a5.79,5.79,0,0,0,0-2.52.38.38,0,0,1,.28-.52.38.38,0,0,1,.5.31C21.67,12.35,21.73,12.85,21.8,13.34Z"/></svg>