<svg id="Capa_1" data-name="Capa 1" xmlns="http://www.w3.org/2000/svg" viewBox="0 0 30 30"><defs><style>.cls-1{fill:#fff;}</style></defs><path class="cls-1" d="M5.21,17.67q0-4.47,0-8.94A1,1,0,0,1,5.46,8C6.31,7.09,7.13,6.15,8,5.21a.76.76,0,0,0,.22-.56c0-.5,0-1,0-1.5,0-.8,0-.8.82-.8H19.09c.51,0,.58.08.59.6s0,1,0,1.46A1.09,1.09,0,0,0,20,5.2c.8.9,1.6,1.81,2.38,2.74a1.2,1.2,0,0,1,.19.51,1.43,1.43,0,0,1,0,.36V26.43c0,.92-.15.86-.87.86H5.59c-.24,0-.34-.15-.38-.36a2,2,0,0,1,0-.35Zm16.6,8.85V8.88a25.84,25.84,0,0,0-4.57,0V26.53C18.77,26.53,20.27,26.54,21.81,26.52Zm-5.39-.07c0-.16,0-.29,0-.42v-8a1,1,0,0,0,0-.17c0-.26-.08-.32-.33-.25L15,18c-.46.14-.92.29-1.38.42s-1,.26-1.51.41c-.79.24-1.56.51-2.35.75s-1.32.39-2,.58l-1.71.55a54.69,54.69,0,0,0,0,5.75C6.39,26.56,16,26.56,16.42,26.45Zm0-17.58C16,8.74,6.36,8.75,6,8.86c-.08.53-.06,5.55,0,5.88a5.3,5.3,0,0,0,.55-.1l1.05-.31L9,13.94l2.29-.74,2.06-.64c.46-.14.92-.29,1.38-.42s1-.25,1.43-.4a.36.36,0,0,0,.29-.39V8.87Zm0,3.62a2,2,0,0,0-.41.06l-2.11.64L11.4,14l-1.79.53-3.21,1C6,15.58,6,15.63,6,16v3.5a1.92,1.92,0,0,0,0,.32c.54,0,9.87-2.89,10.4-3.15ZM6.68,8l.19,0h9.3a.54.54,0,0,0,.46-.22c.54-.66,1.09-1.32,1.62-2a1.15,1.15,0,0,0,.1-.34H9.12a.75.75,0,0,0-.64.28c-.56.66-1.14,1.29-1.71,1.94C6.71,7.77,6.71,7.89,6.68,8Zm12.2-4.87-.23,0H9.27a3,3,0,0,0-.36.06V4.29c0,.42,0,.45.45.46h9.29c.16,0,.27-.08.27-.23A6.5,6.5,0,0,0,18.88,3.12Zm.47,2.6c-.19.21-.35.38-.5.56L17.77,7.64a1.51,1.51,0,0,0-.13.29A.94.94,0,0,0,18,8h3.13c.07,0,.15-.06.17-.11a.22.22,0,0,0,0-.19l-1.58-1.8A1.54,1.54,0,0,0,19.35,5.72Z"/></svg>