<svg id="Capa_1" data-name="Capa 1" xmlns="http://www.w3.org/2000/svg" viewBox="0 0 30 30"><defs><style>.cls-1{fill:#fff;}</style></defs><path class="cls-1" d="M13.31,7.71V6.2a.49.49,0,0,1,.16-.44c.24-.19.49-.13.57.17a1.8,1.8,0,0,1,0,.4c0,.6,0,1.21,0,1.81a1,1,0,0,0,.33.83,8.48,8.48,0,0,1,.64.68c.13-.11.23-.17.31-.25a3.61,3.61,0,0,1,.25-.3,1.6,1.6,0,0,0,.62-1.57c0-.82,0-1.65,0-2.48,0-.17,0-.35,0-.51.51-.22.74-.08.74.45,0,.7,0,1.39,0,2.08,0,.13,0,.25,0,.48l.38-.36c.51-.55,1-1.11,1.54-1.65a.89.89,0,0,0,.24-.68c0-.41,0-.82,0-1.21.53-.19.7-.08.71.42,0,2.95,0,5.91,0,8.86a4.21,4.21,0,0,1-2.39,3.77,3.63,3.63,0,0,1-1.73.54c-.23,0-.33.16-.36.37a2.54,2.54,0,0,0,0,.39v9.26a3.31,3.31,0,0,1,0,.44c0,.32-.08.49-.56.36a4,4,0,0,1-.09-.52c0-.36,0-.71,0-1.07a.79.79,0,0,0-.24-.67c-.63-.71-1.26-1.41-1.9-2.11l-1.46-1.57-.84-.95c-.18-.21-.2-.41-.08-.55a.44.44,0,0,1,.6,0c.22.21.44.44.64.67,1,1,1.91,2.08,2.86,3.13a.68.68,0,0,0,.12.12c.15.11.31,0,.31-.15,0-.5,0-1,0-1.5a1.13,1.13,0,0,0-.31-.52c-.38-.44-.77-.86-1.16-1.29l-2.73-3a3.76,3.76,0,0,1-.25-.31.42.42,0,0,1-.06-.55.48.48,0,0,1,.61,0c.25.25.48.5.72.76L14.24,21a1.62,1.62,0,0,0,.18.19c.15.12.29.06.32-.12a1.08,1.08,0,0,0,0-.18c0-1,0-2,0-3.05,0-.52-.09-.61-.61-.65a4.05,4.05,0,0,1-1.39-.45,4.38,4.38,0,0,1-2-1.86,5.66,5.66,0,0,1-.42-1.24,8.47,8.47,0,0,1-.13-2.46c0-2.38,0-4.75,0-7.13a1.67,1.67,0,0,1,0-.39.35.35,0,0,1,.4-.33.31.31,0,0,1,.31.35c0,.4,0,.8,0,1.2a.72.72,0,0,0,.2.56l1.83,2A2.15,2.15,0,0,0,13.31,7.71Zm-2.32,3a3.64,3.64,0,0,0-.05.38c0,.49,0,1,0,1.46a3.69,3.69,0,0,0,1.16,2.82,4.07,4.07,0,0,0,2.15,1.12c.38.06.48,0,.49-.42s0-.74,0-1.11a.71.71,0,0,0-.18-.52l-.63-.67-2.71-2.91C11.18,10.82,11.1,10.8,11,10.73Zm8.16.06-.1,0c-.21.19-.43.37-.62.57-.92,1-1.84,2-2.75,3a.85.85,0,0,0-.25.45c0,.49,0,1,0,1.5a.26.26,0,0,0,.36.27,8.25,8.25,0,0,0,1-.3,3.85,3.85,0,0,0,2-1.82A3.38,3.38,0,0,0,19.18,13c0-.61,0-1.23,0-1.85C19.19,11,19.16,10.9,19.15,10.79ZM14.56,13.3l.12,0a1.14,1.14,0,0,0,.07-.32c0-.66,0-1.32,0-2a1.06,1.06,0,0,0-.33-.82c-.64-.68-1.27-1.37-1.9-2.06-.37-.39-.72-.8-1.1-1.18-.11-.11-.19-.34-.45-.2a2.19,2.19,0,0,0,0,.28c0,.67,0,1.35,0,2a.87.87,0,0,0,.24.67c1,1,1.94,2.09,2.91,3.13Zm.91,0,.13,0,.29-.31c.35-.38.69-.76,1-1.13.69-.74,1.37-1.48,2.06-2.21a.74.74,0,0,0,.19-.52c0-.72,0-1.44,0-2.16a3.06,3.06,0,0,0-.06-.38,2.83,2.83,0,0,0-.33.27L15.7,10.12a1.05,1.05,0,0,0-.3.75c0,.69,0,1.38,0,2.07A1.23,1.23,0,0,0,15.47,13.26Z"/><path class="cls-1" d="M17.39,23.25v4.24c0,.12,0,.24,0,.36a.29.29,0,0,1-.3.27c-.16,0-.29-.05-.33-.22a2,2,0,0,1-.07-.48v-8.3a1.22,1.22,0,0,1,0-.27c0-.08,0-.2.09-.24a.87.87,0,0,1,.39-.14c.16,0,.21.13.22.27s0,.21,0,.31Z"/></svg>