<svg id="Capa_1" data-name="Capa 1" xmlns="http://www.w3.org/2000/svg" viewBox="0 0 30 30"><defs><style>.cls-1{fill:#fff;}</style></defs><path class="cls-1" d="M14.79,1.91a7.56,7.56,0,0,1,3,.42,5.22,5.22,0,0,1,3.1,2.52,2.64,2.64,0,0,1-1.18,3.58,10.85,10.85,0,0,1-1.9.63,11.94,11.94,0,0,0-2.45.75,4.15,4.15,0,0,0-1.62,1.73c-.39.69-.72,1.4-1.15,2.06a3.44,3.44,0,0,1-2.18,1.49,2.67,2.67,0,0,1-2.8-1,6.17,6.17,0,0,1-1.4-3.22,10.67,10.67,0,0,1-.14-1.1A7.4,7.4,0,0,1,8,4.77a8.57,8.57,0,0,1,3.61-2.4A7.62,7.62,0,0,1,14.79,1.91Zm.91,6.91a3.52,3.52,0,0,1,.38-.16l1.83-.45a4.69,4.69,0,0,0,1.61-.64,1.69,1.69,0,0,0,.68-2.28,4,4,0,0,0-2-1.9,7.24,7.24,0,0,0-2.46-.66,8.26,8.26,0,0,0-6.49,2A6.51,6.51,0,0,0,7.1,8.23a6.23,6.23,0,0,0,1.06,5.16,2,2,0,0,0,2.35.83A3.05,3.05,0,0,0,12.07,13c.38-.64.72-1.29,1.07-1.95a.41.41,0,0,0,0-.5.67.67,0,0,1,0-.88,2.47,2.47,0,0,1,1-1C14.84,8.22,15,8.25,15.7,8.82Z"/><path class="cls-1" d="M23.9,20.4A7.84,7.84,0,0,1,21,26a8.39,8.39,0,0,1-2.8,1.59,7.28,7.28,0,0,1-2.3.49c-.65,0-1.3,0-1.94,0a5.21,5.21,0,0,1-3.62-1.7,2.72,2.72,0,0,1,.19-3.76,9.54,9.54,0,0,1,2.11-1.25c.57-.28,1.15-.54,1.7-.86a3.32,3.32,0,0,0,1.5-2c.2-.66.37-1.33.59-2A3.87,3.87,0,0,1,19,13.94a2.43,2.43,0,0,1,1.74.24,4.84,4.84,0,0,1,2,1.85A7.76,7.76,0,0,1,23.9,20.4Zm-9,7a8.87,8.87,0,0,0,4.55-1.3A7.21,7.21,0,0,0,23,21.12a6,6,0,0,0-2.14-5.89A1.78,1.78,0,0,0,18.66,15a2.87,2.87,0,0,0-1.37,1.56c-.24.72-.45,1.45-.67,2.17a.36.36,0,0,0,.12.47.67.67,0,0,1,.19.83,2.77,2.77,0,0,1-1.25,1.52.68.68,0,0,1-.86,0,.39.39,0,0,0-.49,0c-.41.22-.83.42-1.26.62a8.59,8.59,0,0,0-2,1.15,1.72,1.72,0,0,0-.63,1.54,2.33,2.33,0,0,0,1.18,1.67A5.86,5.86,0,0,0,14.9,27.35Z"/><path class="cls-1" d="M20.88,19.91a3.28,3.28,0,0,0-.51-2,2.12,2.12,0,0,1-.11-.21c-.1-.25-.06-.47.1-.57a.48.48,0,0,1,.63.18,5,5,0,0,1,.44.86,5.26,5.26,0,0,1,.14,3.09,8,8,0,0,1-.49,1.26.48.48,0,0,1-.2.26.56.56,0,0,1-.4,0,.49.49,0,0,1-.21-.34.92.92,0,0,1,.12-.41A4.19,4.19,0,0,0,20.88,19.91Z"/></svg>