<svg id="Capa_1" data-name="Capa 1" xmlns="http://www.w3.org/2000/svg" viewBox="0 0 30 30"><defs><style>.cls-1{fill:#fff;}</style></defs><path class="cls-1" d="M16.7,10.91A6.11,6.11,0,0,1,15.87,14a3.44,3.44,0,0,1-2.38,1.63,4.62,4.62,0,0,1-2.39-.17,3.39,3.39,0,0,1-1.86-1.57A4.46,4.46,0,0,1,8.64,12a9.51,9.51,0,0,1-.09-1.5,11.62,11.62,0,0,1,.62-3,9.6,9.6,0,0,1,2.07-3.37,12,12,0,0,1,1-.87.48.48,0,0,1,.65,0,6.83,6.83,0,0,1,1.5,1.39,10.06,10.06,0,0,1,2,4.15C16.56,9.49,16.6,10.21,16.7,10.91ZM12.49,4c-.43.45-.8.8-1.13,1.19a8.48,8.48,0,0,0-1.8,3.67,14.15,14.15,0,0,0-.23,1.57,6.06,6.06,0,0,0,.21,2.32,3.08,3.08,0,0,0,3.88,2.16,1.69,1.69,0,0,0,.19-.38A12.43,12.43,0,0,0,14,12.17c0-.37,0-.74,0-1.11a13.7,13.7,0,0,0-.26-3.2,22.82,22.82,0,0,0-.71-2.54C12.92,4.89,12.71,4.49,12.49,4Zm1.93,10.33.1.06a1.4,1.4,0,0,0,.24-.15A3.77,3.77,0,0,0,15.83,12a9.22,9.22,0,0,0-.11-2.72,10.73,10.73,0,0,0-1.38-3.4.46.46,0,0,0-.4-.28A16.23,16.23,0,0,1,14.42,14.31Z"/><path class="cls-1" d="M17.19,25.81a1.27,1.27,0,0,1-.82-.27A.8.8,0,0,1,16,25a2.63,2.63,0,0,1,.45-2,6,6,0,0,1,3.29-2.5,1.73,1.73,0,0,1,.56-.08.89.89,0,0,1,1,.95A2.9,2.9,0,0,1,20.82,23a6.31,6.31,0,0,1-1.94,2.17A3.45,3.45,0,0,1,17.19,25.81Zm3.23-4.6a1.38,1.38,0,0,0-.8.14,5.31,5.31,0,0,0-2.48,2,3.66,3.66,0,0,0-.44,1c-.11.39.14.66.55.64a1.52,1.52,0,0,0,.47-.1A5.19,5.19,0,0,0,20.44,22,.71.71,0,0,0,20.42,21.21Z"/><path class="cls-1" d="M12.85,22.25A13.73,13.73,0,0,1,11,21.93a3.87,3.87,0,0,1-2.21-1.37,1.2,1.2,0,0,1,.6-1.94,3.74,3.74,0,0,1,2.22-.09,6.52,6.52,0,0,1,2.55,1.17,5.93,5.93,0,0,1,.53.47,1.21,1.21,0,0,1,.34.88.89.89,0,0,1-.72.91A12.16,12.16,0,0,1,12.85,22.25Zm0-.86a7.05,7.05,0,0,0,.78,0,1,1,0,0,0,.44-.15c.25-.16.27-.26.09-.49a2.59,2.59,0,0,0-.41-.4,6,6,0,0,0-2.1-1,4.34,4.34,0,0,0-1.43-.13,2.22,2.22,0,0,0-.71.2.4.4,0,0,0-.17.59,2,2,0,0,0,1,.87A4.34,4.34,0,0,0,12.85,21.39Z"/><path class="cls-1" d="M11.78,27.85A1.4,1.4,0,0,1,10.39,27a1.62,1.62,0,0,1,.23-1.43,2.29,2.29,0,0,1,2.39-.9,1.34,1.34,0,0,1,.92,1.58A2.25,2.25,0,0,1,11.78,27.85Zm-.06-.76a1.61,1.61,0,0,0,1.47-1,.55.55,0,0,0-.2-.62.86.86,0,0,0-.66-.17,1.76,1.76,0,0,0-1.11.71.69.69,0,0,0-.09.74A.65.65,0,0,0,11.72,27.09Z"/><path class="cls-1" d="M18.41,15.76a1.63,1.63,0,0,1,.36-1.11,1.33,1.33,0,0,1,2-.17,2.13,2.13,0,0,1,.71,1.86,1.75,1.75,0,0,1-.31,1,1.35,1.35,0,0,1-1.91.27A2.27,2.27,0,0,1,18.41,15.76Zm.78-.06A1.39,1.39,0,0,0,19.8,17a.52.52,0,0,0,.8-.21,1.46,1.46,0,0,0-.28-1.73.65.65,0,0,0-.72-.17.56.56,0,0,0-.38.49A1.35,1.35,0,0,0,19.19,15.7Z"/></svg>