<svg id="Capa_1" data-name="Capa 1" xmlns="http://www.w3.org/2000/svg" viewBox="0 0 30 30"><defs><style>.cls-1{fill:#fff;}</style></defs><path class="cls-1" d="M27,17.31a13.81,13.81,0,0,1-.69,4.09,10,10,0,0,1-3,4.72A8.12,8.12,0,0,1,20,27.78a9.49,9.49,0,0,1-2.65.33,9.26,9.26,0,0,1-3.93-.93c-.46-.24-.94-.42-1.41-.62a10.85,10.85,0,0,1-3.14-2A12.87,12.87,0,0,1,6,20.73c-.56-1.12-1.11-2.24-1.57-3.4-.37-.95-.6-2-.88-2.94A15.45,15.45,0,0,1,3,10,8.52,8.52,0,0,1,3.72,6.5a5.78,5.78,0,0,1,2.6-2.75,6,6,0,0,1,4.15-.64,9.06,9.06,0,0,1,1.86.47.87.87,0,0,0,1.15-.23,5.25,5.25,0,0,1,1.79-1.1,8.28,8.28,0,0,1,1.21-.32,4.86,4.86,0,0,1,1.13-.14,6.32,6.32,0,0,1,3.7,1.3,11.48,11.48,0,0,1,2.9,3.56,20.11,20.11,0,0,1,1.65,4,23.74,23.74,0,0,1,.95,4.58C26.87,15.93,27,16.62,27,17.31Zm-.84,0c-.09-.85-.14-1.63-.26-2.41s-.26-1.71-.46-2.55a22.59,22.59,0,0,0-1.2-3.65,14.51,14.51,0,0,0-1.92-3.41,7.28,7.28,0,0,0-2.26-2,5.08,5.08,0,0,0-5.1,0,8.1,8.1,0,0,0-2.76,2.73,18.44,18.44,0,0,0-2.35,5.43,34.08,34.08,0,0,0-.73,3.59,12.92,12.92,0,0,0,.27,5.6,10.6,10.6,0,0,0,1.8,3.62A7.53,7.53,0,0,0,15.39,27a8.84,8.84,0,0,0,3.93.09,7.54,7.54,0,0,0,4.06-2.21,10,10,0,0,0,2.49-4.84A26.43,26.43,0,0,0,26.19,17.33ZM12.29,4.49a5.67,5.67,0,0,0-2.37-.67,5.11,5.11,0,0,0-3.4.75A5.47,5.47,0,0,0,4.79,6.26a7,7,0,0,0-1,3.52,14.38,14.38,0,0,0,.13,2.45,23.61,23.61,0,0,0,1.56,5.55,20.87,20.87,0,0,0,1.7,3.37,13.4,13.4,0,0,0,2.66,3.1,2.36,2.36,0,0,0,.39.19c-.1-.18-.13-.27-.18-.35a10.78,10.78,0,0,1-1.16-2.36,11.67,11.67,0,0,1-.65-2.85,18,18,0,0,1,.31-5.23c.08-.38.15-.75.24-1.13.14-.62.26-1.25.45-1.86s.52-1.41.78-2.12A15.45,15.45,0,0,1,11.88,5.1Z"/><path class="cls-1" d="M11,17a.39.39,0,0,1,.42.41,9.83,9.83,0,0,0,.6,2.68,9,9,0,0,0,3.48,4.48,1.17,1.17,0,0,1,.3.24.43.43,0,0,1,0,.57c-.17.18-.34.13-.52,0a9.42,9.42,0,0,1-3.14-3.23,10.79,10.79,0,0,1-1.47-4.47,2,2,0,0,1,0-.34A.4.4,0,0,1,11,17Z"/></svg>